# Blender 3.5.0
# www.blender.org
o arrow-8
v 0.000000 0.050000 0.000000
v 0.000000 0.050000 0.825000
v 0.035355 0.035355 0.000000
v 0.035355 0.035355 0.825000
v 0.050000 0.000000 0.000000
v 0.050000 0.000000 0.825000
v 0.035355 -0.035355 0.000000
v 0.035355 -0.035355 0.825000
v 0.000000 -0.050000 0.000000
v 0.000000 -0.050000 0.825000
v -0.035355 -0.035355 0.000000
v -0.035355 -0.035355 0.825000
v -0.050000 0.000000 0.000000
v -0.050000 0.000000 0.825000
v -0.035355 0.035355 0.000000
v -0.035355 0.035355 0.825000
v 0.000000 0.100000 0.750000
v 0.070711 0.070711 0.750000
v 0.100000 0.000000 0.750000
v 0.070711 -0.070711 0.750000
v 0.000000 -0.100000 0.750000
v -0.070711 -0.070711 0.750000
v -0.100000 0.000000 0.750000
v -0.070711 0.070711 0.750000
v 0.000000 0.000000 1.000000
vn 0.3827 0.9239 -0.0000
vn 0.9239 0.3827 -0.0000
vn 0.9239 -0.3827 -0.0000
vn 0.3827 -0.9239 -0.0000
vn -0.3827 -0.9239 -0.0000
vn -0.9239 -0.3827 -0.0000
vn -0.0000 -0.0000 1.0000
vn -0.9239 0.3827 -0.0000
vn -0.3827 0.9239 -0.0000
vn -0.0000 -0.0000 -1.0000
vn 0.3590 0.8666 0.3466
vn 0.8666 0.3590 0.3466
vn 0.8666 -0.3590 0.3466
vn 0.3590 -0.8666 0.3466
vn -0.3590 -0.8666 0.3466
vn -0.8666 -0.3590 0.3466
vn -0.8666 0.3590 0.3466
vn -0.3590 0.8666 0.3466
vt 1.000000 0.500000
vt 0.000000 0.500000
vt 0.750000 0.490000
vt 1.000000 1.000000
vt 0.250000 0.490000
vt 0.000000 1.000000
vt 0.875000 0.500000
vt 0.919706 0.419706
vt 0.875000 1.000000
vt 0.419706 0.419706
vt 0.750000 0.500000
vt 0.990000 0.250000
vt 0.750000 1.000000
vt 0.490000 0.250000
vt 0.625000 0.500000
vt 0.919706 0.080294
vt 0.625000 1.000000
vt 0.419706 0.080294
vt 0.500000 0.500000
vt 0.750000 0.010000
vt 0.500000 1.000000
vt 0.250000 0.010000
vt 0.375000 0.500000
vt 0.580294 0.080294
vt 0.375000 1.000000
vt 0.080294 0.080294
vt 0.250000 0.500000
vt 0.510000 0.250000
vt 0.010000 0.250000
vt 0.250000 1.000000
vt 0.125000 0.500000
vt 0.580294 0.419706
vt 0.080294 0.419706
vt 0.125000 1.000000
vt 0.250000 0.490000
vt 0.750000 0.490000
vt 0.419706 0.419706
vt 0.919706 0.419706
vt 0.490000 0.250000
vt 0.990000 0.250000
vt 0.419706 0.080294
vt 0.919706 0.080294
vt 0.250000 0.010000
vt 0.750000 0.010000
vt 0.080294 0.080294
vt 0.580294 0.080294
vt 0.010000 0.250000
vt 0.510000 0.250000
vt 0.080294 0.419706
vt 0.580294 0.419706
vt 0.250000 0.250000
s 0
f 2/4/1 3/7/1 1/1/1
f 4/9/2 5/11/2 3/7/2
f 6/13/3 7/15/3 5/11/3
f 8/17/4 9/19/4 7/15/4
f 10/21/5 11/23/5 9/19/5
f 12/25/6 13/27/6 11/23/6
f 14/29/7 10/22/7 6/14/7
f 14/30/8 15/31/8 13/27/8
f 16/34/9 1/2/9 15/31/9
f 7/16/10 11/24/10 15/32/10
f 17/35/11 25/51/11 18/37/11
f 18/37/12 25/51/12 19/39/12
f 19/39/13 25/51/13 20/41/13
f 20/41/14 25/51/14 21/43/14
f 21/43/15 25/51/15 22/45/15
f 22/45/16 25/51/16 23/47/16
f 20/42/10 22/46/10 24/50/10
f 23/47/17 25/51/17 24/49/17
f 24/49/18 25/51/18 17/35/18
f 2/4/1 4/9/1 3/7/1
f 4/9/2 6/13/2 5/11/2
f 6/13/3 8/17/3 7/15/3
f 8/17/4 10/21/4 9/19/4
f 10/21/5 12/25/5 11/23/5
f 12/25/6 14/30/6 13/27/6
f 6/14/7 4/10/7 2/5/7
f 2/5/7 16/33/7 14/29/7
f 14/29/7 12/26/7 10/22/7
f 10/22/7 8/18/7 6/14/7
f 6/14/7 2/5/7 14/29/7
f 14/30/8 16/34/8 15/31/8
f 16/34/9 2/6/9 1/2/9
f 15/32/10 1/3/10 3/8/10
f 3/8/10 5/12/10 7/16/10
f 7/16/10 9/20/10 11/24/10
f 11/24/10 13/28/10 15/32/10
f 15/32/10 3/8/10 7/16/10
f 24/50/10 17/36/10 18/38/10
f 18/38/10 19/40/10 20/42/10
f 20/42/10 21/44/10 22/46/10
f 22/46/10 23/48/10 24/50/10
f 24/50/10 18/38/10 20/42/10
